<?xml version="1.0" encoding="utf-8"?>
<!-- Generator: Adobe Illustrator 24.3.0, SVG Export Plug-In . SVG Version: 6.00 Build 0)  -->
<svg version="1.1" id="Layer_1" xmlns="http://www.w3.org/2000/svg" xmlns:xlink="http://www.w3.org/1999/xlink" x="0px" y="0px"
	 viewBox="0 0 301.4 67.4" style="enable-background:new 0 0 301.4 67.4;" xml:space="preserve">
<style type="text/css">
	.st0{fill:#021642;}
	.st1{fill:#E73338;}
</style>
<g>
	<g>
		<path class="st0" d="M33.7,45.4c-0.8,0.9-2.1,1.1-3,0.4L17.2,35.4L5,51.4l0.3,2.5l1,7.4c0.3,1.9,1.2,3.5,2.6,4.6
			c1.4,1.1,3.3,1.7,5.2,1.4l45.9-6.1c1.9-0.3,3.5-1.3,4.6-2.7c1.1-1.4,1.7-3.3,1.4-5.2l-1-7.4l-1.2-9.3L49,25.3L33.7,45.4z"/>
		<path class="st1" d="M51.9,0.1L6,6.2C4.1,6.4,2.5,7.4,1.4,8.9s-1.6,3.2-1.3,5.1l4.2,31.4l10.8-14.2c0.8-1,2.1-1.1,3-0.4l13.5,10.4
			L46.9,21c0.8-1,2.1-1.1,3-0.4l13.2,10.2L59.8,6.1c-0.3-1.9-1.3-3.5-2.7-4.6C55.7,0.4,53.8-0.2,51.9,0.1z M29.6,28.7
			c-3.1,0.4-6-1.8-6.5-4.9c-0.4-3.1,1.8-6,4.9-6.5c3.1-0.4,6,1.8,6.5,4.9C34.9,25.4,32.7,28.3,29.6,28.7z"/>
	</g>
	<g>
		<path class="st0" d="M84.8,11.9c0-1.2,0.4-2.3,1.2-3.1C86.9,8,88,7.6,89.4,7.6c1.4,0,2.5,0.4,3.3,1.2c0.8,0.8,1.2,1.8,1.2,3.1
			c0,1.3-0.4,2.3-1.3,3.1c-0.8,0.8-1.9,1.2-3.3,1.2c-1.4,0-2.5-0.4-3.3-1.2C85.2,14.2,84.8,13.2,84.8,11.9z M93.4,51.1h-8.2V20h8.2
			V51.1z"/>
		<path class="st0" d="M107.8,20l0.3,3.5c2.2-2.7,5.1-4.1,8.7-4.1c3.9,0,6.6,1.6,8.1,4.7c2.1-3.2,5.2-4.7,9.1-4.7
			c3.3,0,5.8,1,7.4,2.9c1.6,2,2.4,4.9,2.4,8.9v19.9h-8.2V31.2c0-1.8-0.3-3.1-1-3.9c-0.7-0.8-1.9-1.2-3.6-1.2c-2.4,0-4.1,1.2-5.1,3.6
			l0,21.4h-8.1V31.3c0-1.8-0.3-3.1-1-3.9c-0.7-0.8-1.9-1.2-3.5-1.2c-2.3,0-4,1-5,2.9v22h-8.1V20H107.8z"/>
		<path class="st0" d="M167.6,51.1c-0.4-0.7-0.6-1.7-0.8-2.8c-2,2.2-4.5,3.4-7.7,3.4c-3,0-5.4-0.9-7.4-2.6c-2-1.8-2.9-4-2.9-6.7
			c0-3.3,1.2-5.8,3.6-7.6c2.4-1.8,5.8-2.7,10.4-2.7h3.7v-1.8c0-1.4-0.4-2.6-1.1-3.4c-0.7-0.9-1.9-1.3-3.4-1.3c-1.4,0-2.4,0.3-3.2,1
			c-0.8,0.7-1.2,1.6-1.2,2.8h-8.1c0-1.8,0.5-3.5,1.6-5c1.1-1.5,2.6-2.7,4.6-3.6c2-0.9,4.2-1.3,6.7-1.3c3.7,0,6.7,1,8.9,2.9
			c2.2,1.9,3.3,4.6,3.3,8.1v13.5c0,3,0.4,5.2,1.2,6.7v0.5H167.6z M160.9,45.3c1.2,0,2.3-0.3,3.3-0.8c1-0.5,1.8-1.3,2.2-2.2v-5.3h-3
			c-4.1,0-6.2,1.4-6.5,4.3l0,0.5c0,1,0.4,1.9,1.1,2.6C158.7,44.9,159.6,45.3,160.9,45.3z"/>
		<path class="st0" d="M179.7,35.3c0-4.8,1.1-8.6,3.3-11.5c2.2-2.9,5.2-4.4,9-4.4c3.3,0,5.9,1.2,7.8,3.5l0.3-2.9h7.4V50
			c0,2.7-0.6,5.1-1.8,7.1c-1.2,2-2.9,3.5-5.1,4.6c-2.2,1.1-4.8,1.6-7.7,1.6c-2.2,0-4.4-0.5-6.5-1.4c-2.1-0.9-3.7-2.1-4.8-3.5
			l3.6-5.1c2,2.3,4.5,3.5,7.4,3.5c2.2,0,3.8-0.6,5-1.8c1.2-1.2,1.8-2.9,1.8-5v-1.7c-1.9,2.2-4.3,3.2-7.4,3.2c-3.7,0-6.6-1.5-8.9-4.4
			c-2.3-2.9-3.4-6.8-3.4-11.6V35.3z M187.8,35.9c0,2.8,0.6,5,1.7,6.6c1.1,1.6,2.6,2.4,4.6,2.4c2.5,0,4.2-0.9,5.3-2.9V29
			c-1.1-1.9-2.8-2.9-5.3-2.9c-1.9,0-3.5,0.8-4.6,2.4C188.3,30.2,187.8,32.7,187.8,35.9z"/>
		<path class="st0" d="M227.7,51.6c-4.5,0-8.1-1.4-10.9-4.2c-2.8-2.8-4.2-6.5-4.2-11.2v-0.8c0-3.1,0.6-5.9,1.8-8.4
			c1.2-2.5,2.9-4.4,5-5.7c2.2-1.3,4.6-2,7.4-2c4.2,0,7.4,1.3,9.8,4c2.4,2.7,3.6,6.5,3.6,11.4v3.4h-19.4c0.3,2,1.1,3.7,2.4,4.9
			c1.3,1.2,3,1.8,5,1.8c3.1,0,5.6-1.2,7.3-3.5l4,4.6c-1.2,1.8-2.9,3.1-4.9,4.1C232.5,51.1,230.2,51.6,227.7,51.6z M226.8,26.1
			c-1.6,0-2.9,0.6-3.9,1.7c-1,1.1-1.6,2.7-1.9,4.8h11.3v-0.7c0-1.8-0.5-3.3-1.5-4.3C229.8,26.6,228.5,26.1,226.8,26.1z"/>
		<path class="st0" d="M263,47.9c-2,2.5-4.8,3.7-8.3,3.7c-3.3,0-5.7-1-7.5-2.9c-1.7-1.9-2.6-4.7-2.6-8.4V20h8.1v20.1
			c0,3.2,1.4,4.9,4.3,4.9c2.8,0,4.6-1,5.7-2.9V20h8.2v31.1h-7.6L263,47.9z"/>
		<path class="st0" d="M293.5,42.5c0-1-0.5-1.8-1.5-2.4c-1-0.6-2.6-1.1-4.7-1.6c-7.2-1.6-10.8-4.7-10.8-9.4c0-2.8,1.1-5.1,3.4-6.9
			c2.2-1.8,5.2-2.8,8.8-2.8c3.9,0,6.9,0.9,9.3,2.8c2.3,1.9,3.5,4.3,3.5,7.2h-8.1c0-1.2-0.4-2.2-1.1-2.9c-0.7-0.8-1.9-1.2-3.5-1.2
			c-1.4,0-2.4,0.3-3.2,0.9c-0.7,0.6-1.1,1.4-1.1,2.4c0,0.9,0.4,1.7,1.3,2.2c0.9,0.6,2.3,1.1,4.3,1.5c2,0.4,3.7,0.9,5.1,1.4
			c4.3,1.6,6.4,4.4,6.4,8.4c0,2.8-1.2,5.1-3.6,6.9c-2.4,1.8-5.5,2.6-9.2,2.6c-2.5,0-4.8-0.5-6.8-1.4c-2-0.9-3.5-2.2-4.7-3.8
			c-1.1-1.6-1.7-3.4-1.7-5.2h7.7c0.1,1.5,0.6,2.6,1.6,3.4c1,0.8,2.3,1.2,4,1.2c1.6,0,2.7-0.3,3.5-0.9
			C293.1,44.2,293.5,43.4,293.5,42.5z"/>
	</g>
</g>
</svg>
